<mxfile host="app.diagrams.net" agent="Mozilla/5.0 (Windows NT 10.0; Win64; x64) AppleWebKit/537.36 (KHTML, like Gecko) Chrome/128.0.0.0 Safari/537.36" version="24.7.7">
  <diagram name="PÃ¡gina-1" id="93T5LcTA53nr6QFC1hxI">
    <mxGraphModel dx="1313" dy="761" grid="1" gridSize="10" guides="1" tooltips="1" connect="1" arrows="1" fold="1" page="1" pageScale="1" pageWidth="1169" pageHeight="827" math="0" shadow="0">
      <root>
        <mxCell id="0" />
        <mxCell id="1" parent="0" />
        <mxCell id="Mv8B6uKNffKE0bFU5Z3k-3" value="" style="edgeStyle=orthogonalEdgeStyle;rounded=0;orthogonalLoop=1;jettySize=auto;html=1;" edge="1" parent="1" source="Mv8B6uKNffKE0bFU5Z3k-1" target="Mv8B6uKNffKE0bFU5Z3k-2">
          <mxGeometry relative="1" as="geometry" />
        </mxCell>
        <mxCell id="Mv8B6uKNffKE0bFU5Z3k-1" value="INICIO" style="ellipse;whiteSpace=wrap;html=1;" vertex="1" parent="1">
          <mxGeometry x="430" y="80" width="120" height="80" as="geometry" />
        </mxCell>
        <mxCell id="Mv8B6uKNffKE0bFU5Z3k-5" value="" style="edgeStyle=orthogonalEdgeStyle;rounded=0;orthogonalLoop=1;jettySize=auto;html=1;" edge="1" parent="1" source="Mv8B6uKNffKE0bFU5Z3k-2" target="Mv8B6uKNffKE0bFU5Z3k-4">
          <mxGeometry relative="1" as="geometry" />
        </mxCell>
        <mxCell id="Mv8B6uKNffKE0bFU5Z3k-2" value="VAL1&lt;div&gt;VAL2&lt;/div&gt;&lt;div&gt;VALT&lt;/div&gt;" style="shape=hexagon;perimeter=hexagonPerimeter2;whiteSpace=wrap;html=1;fixedSize=1;" vertex="1" parent="1">
          <mxGeometry x="430" y="210" width="120" height="80" as="geometry" />
        </mxCell>
        <mxCell id="Mv8B6uKNffKE0bFU5Z3k-8" value="" style="edgeStyle=orthogonalEdgeStyle;rounded=0;orthogonalLoop=1;jettySize=auto;html=1;" edge="1" parent="1" source="Mv8B6uKNffKE0bFU5Z3k-4" target="Mv8B6uKNffKE0bFU5Z3k-7">
          <mxGeometry relative="1" as="geometry" />
        </mxCell>
        <mxCell id="Mv8B6uKNffKE0bFU5Z3k-4" value="Ler VAL1&lt;div&gt;Ler VAL2&lt;/div&gt;" style="shape=parallelogram;perimeter=parallelogramPerimeter;whiteSpace=wrap;html=1;fixedSize=1;" vertex="1" parent="1">
          <mxGeometry x="430" y="330" width="120" height="60" as="geometry" />
        </mxCell>
        <mxCell id="Mv8B6uKNffKE0bFU5Z3k-11" value="" style="edgeStyle=orthogonalEdgeStyle;rounded=0;orthogonalLoop=1;jettySize=auto;html=1;" edge="1" parent="1" source="Mv8B6uKNffKE0bFU5Z3k-6" target="Mv8B6uKNffKE0bFU5Z3k-10">
          <mxGeometry relative="1" as="geometry" />
        </mxCell>
        <mxCell id="Mv8B6uKNffKE0bFU5Z3k-13" value="" style="edgeStyle=orthogonalEdgeStyle;rounded=0;orthogonalLoop=1;jettySize=auto;html=1;" edge="1" parent="1" source="Mv8B6uKNffKE0bFU5Z3k-6" target="Mv8B6uKNffKE0bFU5Z3k-12">
          <mxGeometry relative="1" as="geometry" />
        </mxCell>
        <mxCell id="Mv8B6uKNffKE0bFU5Z3k-6" value="VALT &amp;gt;= 10&amp;nbsp;" style="rhombus;whiteSpace=wrap;html=1;" vertex="1" parent="1">
          <mxGeometry x="435" y="540" width="110" height="100" as="geometry" />
        </mxCell>
        <mxCell id="Mv8B6uKNffKE0bFU5Z3k-9" value="" style="edgeStyle=orthogonalEdgeStyle;rounded=0;orthogonalLoop=1;jettySize=auto;html=1;" edge="1" parent="1" source="Mv8B6uKNffKE0bFU5Z3k-7" target="Mv8B6uKNffKE0bFU5Z3k-6">
          <mxGeometry relative="1" as="geometry" />
        </mxCell>
        <mxCell id="Mv8B6uKNffKE0bFU5Z3k-7" value="VALT = VAL1 + VAL2" style="rounded=0;whiteSpace=wrap;html=1;" vertex="1" parent="1">
          <mxGeometry x="425" y="440" width="130" height="60" as="geometry" />
        </mxCell>
        <mxCell id="Mv8B6uKNffKE0bFU5Z3k-16" style="edgeStyle=orthogonalEdgeStyle;rounded=0;orthogonalLoop=1;jettySize=auto;html=1;entryX=0.5;entryY=0;entryDx=0;entryDy=0;" edge="1" parent="1" source="Mv8B6uKNffKE0bFU5Z3k-10" target="Mv8B6uKNffKE0bFU5Z3k-14">
          <mxGeometry relative="1" as="geometry">
            <Array as="points">
              <mxPoint x="710" y="660" />
              <mxPoint x="490" y="660" />
            </Array>
          </mxGeometry>
        </mxCell>
        <mxCell id="Mv8B6uKNffKE0bFU5Z3k-10" value="Exibir VALT" style="shape=parallelogram;perimeter=parallelogramPerimeter;whiteSpace=wrap;html=1;fixedSize=1;" vertex="1" parent="1">
          <mxGeometry x="640" y="560" width="140" height="60" as="geometry" />
        </mxCell>
        <mxCell id="Mv8B6uKNffKE0bFU5Z3k-15" style="edgeStyle=orthogonalEdgeStyle;rounded=0;orthogonalLoop=1;jettySize=auto;html=1;entryX=0.5;entryY=0;entryDx=0;entryDy=0;" edge="1" parent="1" source="Mv8B6uKNffKE0bFU5Z3k-12" target="Mv8B6uKNffKE0bFU5Z3k-14">
          <mxGeometry relative="1" as="geometry">
            <Array as="points">
              <mxPoint x="280" y="660" />
              <mxPoint x="490" y="660" />
            </Array>
          </mxGeometry>
        </mxCell>
        <mxCell id="Mv8B6uKNffKE0bFU5Z3k-12" value="Exibir &quot;Soma menor que 10&quot;" style="shape=parallelogram;perimeter=parallelogramPerimeter;whiteSpace=wrap;html=1;fixedSize=1;" vertex="1" parent="1">
          <mxGeometry x="190" y="560" width="180" height="60" as="geometry" />
        </mxCell>
        <mxCell id="Mv8B6uKNffKE0bFU5Z3k-14" value="FIM" style="ellipse;whiteSpace=wrap;html=1;" vertex="1" parent="1">
          <mxGeometry x="430" y="710" width="120" height="80" as="geometry" />
        </mxCell>
      </root>
    </mxGraphModel>
  </diagram>
</mxfile>
